<?xml version="1.0" encoding="utf-8"?>
<!-- Generator: Adobe Illustrator 16.0.0, SVG Export Plug-In . SVG Version: 6.00 Build 0)  -->
<!DOCTYPE svg PUBLIC "-//W3C//DTD SVG 1.1//EN" "http://www.w3.org/Graphics/SVG/1.1/DTD/svg11.dtd">
<svg version="1.1" id="Layer_3" xmlns="http://www.w3.org/2000/svg" xmlns:xlink="http://www.w3.org/1999/xlink" x="0px" y="0px"
	 width="342.102px" height="276px" viewBox="0 0 342.102 276" enable-background="new 0 0 342.102 276" xml:space="preserve">
<g>
	<path fill="#FCFCFC" d="M251.517,146.367c0,11.113,3.477,16.67,10.433,16.67c4.837,0,13.191-4.233,25.061-12.7
		c10.734-7.938,17.123-12.928,19.164-14.969c4.687-3.93,9.6-5.896,14.742-5.896c2.191,0,4.063,0.737,5.613,2.211
		c1.549,1.475,2.325,3.686,2.325,6.634s-0.719,5.633-2.154,8.051c-1.437,2.421-3.271,4.915-5.5,7.484
		c-2.23,2.571-4.989,5.443-8.278,8.618s-7.05,6.521-11.283,10.036c-4.235,3.515-8.865,7.013-13.891,10.488
		c-5.028,3.479-10.225,6.616-15.592,9.412c-12.096,6.2-23.02,9.299-32.771,9.299c-11.189,0-18.787-5.063-22.792-15.195
		c-2.344-5.82-3.515-12.813-3.515-20.979l-32.999,22.34c-22.605,15.875-36.06,24.304-40.369,25.287
		c-2.193,0.528-4.405,0.794-6.634,0.794c-2.23,0-4.329-0.209-6.293-0.624c-1.967-0.416-3.705-1.116-5.216-2.098
		c-3.478-2.041-5.216-5.064-5.216-9.072c0-1.587,1.058-5.442,3.175-11.566l9.752-26.761c3.023-8.618,4.536-13.796,4.536-15.536
		c0-0.604-0.379-0.907-1.134-0.907c-0.756,0-2.154,0.794-4.195,2.382c-2.042,1.588-4.499,3.629-7.371,6.123l-26.988,23.587
		l-14.174,11.793c-14.515,11.566-26.347,17.35-35.493,17.35c-4.309,0-8.655-1.928-13.041-5.783
		c-4.763-4.082-7.144-8.995-7.144-14.741c0-5.744,0.549-12.021,1.644-18.824c1.097-6.804,2.665-13.361,4.706-19.674
		c2.041-6.312,4.575-12.247,7.598-17.804s6.463-10.376,10.319-14.458c8.315-8.919,18.124-13.38,29.427-13.38
		c11.3,0,16.953,3.327,16.953,9.979c0,2.874-1.55,7.257-4.649,13.153c-6.577,13.004-9.865,20.015-9.865,21.035
		s0.32,1.814,0.964,2.382c0.641,0.566,1.341,0.851,2.098,0.851c1.587,0,3.855-1.285,6.804-3.855
		c19.428-17.01,31.655-27.556,36.684-31.638c5.027-4.083,9.883-7.672,14.572-10.773c10.733-7.031,19.277-10.546,25.627-10.546
		c5.216,0,9.449,0.833,12.7,2.495c5.67,2.948,8.505,6.276,8.505,9.979c0,3.705-0.51,7.901-1.531,12.587
		c-1.021,4.688-2.137,9.224-3.345,13.607l-3.402,11.566c-1.06,3.327-1.587,5.879-1.587,7.654c0,1.777,0.754,2.664,2.268,2.664
		c3.629,0,10.847-5.14,21.659-15.422l11-10.318c12.625-11.34,22.187-17.01,28.689-17.01c3.099,0,5.857,1.21,8.278,3.629
		c4.233,4.234,6.35,7.938,6.35,11.112c0,1.74-0.606,4.083-1.814,7.031C252.651,139.64,251.517,143.723,251.517,146.367z"/>
</g>
</svg>
